<?xml version="1.0" encoding="UTF-8" standalone="no"?>
<!-- Generator: Adobe Illustrator 17.0.0, SVG Export Plug-In . SVG Version: 6.00 Build 0)  -->

<svg
   xmlns:dc="http://purl.org/dc/elements/1.1/"
   xmlns:cc="http://creativecommons.org/ns#"
   xmlns:rdf="http://www.w3.org/1999/02/22-rdf-syntax-ns#"
   xmlns:svg="http://www.w3.org/2000/svg"
   xmlns="http://www.w3.org/2000/svg"
   xmlns:xlink="http://www.w3.org/1999/xlink"
   xmlns:sodipodi="http://sodipodi.sourceforge.net/DTD/sodipodi-0.dtd"
   xmlns:inkscape="http://www.inkscape.org/namespaces/inkscape"
   version="1.1"
   id="Layer_2"
   x="0px"
   y="0px"
   width="144"
   height="144"
   viewBox="0 0 144 144"
   enable-background="new 0 0 119.99 63.835"
   xml:space="preserve"
   inkscape:version="0.91 r13725"
   sodipodi:docname="logo.svg"
   inkscape:export-filename="/home/michael/revisioner/public/appicon.png"
   inkscape:export-xdpi="90"
   inkscape:export-ydpi="90"><metadata
     id="metadata3394"><rdf:RDF><cc:Work
         rdf:about=""><dc:format>image/svg+xml</dc:format><dc:type
           rdf:resource="http://purl.org/dc/dcmitype/StillImage" /><dc:title /></cc:Work></rdf:RDF></metadata><defs
     id="defs3392" /><sodipodi:namedview
     pagecolor="#4b0082"
     bordercolor="#666666"
     borderopacity="1"
     objecttolerance="10"
     gridtolerance="10"
     guidetolerance="10"
     inkscape:pageopacity="0"
     inkscape:pageshadow="2"
     inkscape:window-width="1215"
     inkscape:window-height="1000"
     id="namedview3390"
     showgrid="false"
     inkscape:zoom="3.1851923"
     inkscape:cx="41.022066"
     inkscape:cy="16.294387"
     inkscape:window-x="65"
     inkscape:window-y="24"
     inkscape:window-maximized="1"
     inkscape:current-layer="Layer_2"
     fit-margin-top="0"
     fit-margin-left="0"
     fit-margin-right="0"
     fit-margin-bottom="0" /><rect
     style="fill:#4b0082;fill-opacity:1"
     id="rect4221"
     width="160.42987"
     height="154.15082"
     x="-9.7325373"
     y="-2.929908" /><g
     id="g4476"
     transform="matrix(1.7605142,0,0,1.7605142,-21.563154,-21.244355)"><g
       id="g3420"
       transform="matrix(1,0,0,1.5710479,0.17833017,-19.498353)"><path
         d="m 24.968733,56.17047 c 0.376858,-0.88076 7.829155,-18.059849 8.184662,-18.949684 0.35604,-0.889834 -0.356041,-1.29018 -0.667243,-0.44465 -0.311201,0.844996 -9.118801,20.15072 -9.60829,21.262612 -0.488955,1.112427 -0.488955,1.868279 1.423629,1.868279 1.912583,0 26.378493,0 26.378493,0 l 0,1.557077 6.227773,0 0,-1.690526 c 0,0 25.799861,0 26.734,0 0.934139,0 1.779135,-0.177753 0.978444,-1.868278 -0.800691,-1.690525 -9.074496,-19.972967 -9.474841,-20.951411 -0.400346,-0.978444 -1.156198,-0.578099 -0.844996,0.178287 0.311202,0.756386 8.006908,18.326746 8.31811,19.172276 0.311202,0.844996 0.711547,2.17948 -2.891561,2.17948 -4.84845,0 -13.344848,-3.380516 -17.0371,-3.380516 -3.692253,0 -7.159778,2.17948 -8.917561,4.492409 -1.757784,-1.645687 -3.982103,-4.492943 -8.741943,-4.492943 -4.75984,0 -10.809326,3.336212 -16.992261,3.336212 -2.312929,0 -3.949007,-0.211916 -3.069315,-2.268624 z"
         id="path3386"
         style="fill:#f4d7d7"
         inkscape:connector-curvature="0" /><path
         d="m 79.9052,53.857541 c -0.711548,-1.912584 -7.695707,-20.239864 -7.695707,-20.239864 0,0 -0.667242,0.222592 -2.046032,0.222592 -4.492943,0 -9.563985,-2.980171 -11.565712,-2.980171 -2.090871,0 -4.825497,2.312929 -4.825497,2.312929 0,0 -3.181412,-2.312929 -4.69365,-2.312929 -2.802418,0 -6.449832,2.935867 -11.921219,2.935867 -1.201036,0 -1.912584,-0.177754 -1.912584,-0.177754 0,0 -7.428809,19.661231 -7.962603,20.995716 -0.533794,1.334484 -0.534328,2.224319 1.467933,2.224319 4.804145,0 13.478296,-4.359495 16.19157,-4.359495 4.981899,0 8.830553,5.604836 8.830553,5.604836 0,0 4.247398,-5.560531 8.784646,-5.560531 4.537248,0 10.675878,4.4038 16.325019,4.4038 1.73483,0 1.73483,-1.156732 1.023283,-3.069315 z M 52.548262,53.457195 c 0,0 -2.402072,-2.935866 -7.117074,-2.935866 -4.893288,0 -12.188116,4.270351 -14.234682,4.270351 -1.156731,0 -1.823973,-0.266897 -1.334484,-1.912584 0.489489,-1.645686 6.361222,-17.348301 6.361222,-17.348301 0,0 0.846063,0.08914 2.046032,0.08914 5.471387,0 7.473114,-2.535521 10.675878,-2.535521 2.17948,0 3.336211,1.245341 3.603108,2.135176 l 0,18.237602 z m 23.881939,1.334485 c -2.046032,0 -9.341393,-4.270351 -14.234681,-4.270351 -4.715002,0 -7.117075,2.935866 -7.117075,2.935866 l 0,-18.238136 c 0.266897,-0.889834 1.423629,-2.135176 3.603109,-2.135176 3.202764,0 5.204491,2.535521 10.675878,2.535521 1.199969,0 2.046032,-0.08914 2.046032,-0.08914 0,0 5.871733,15.702615 6.361222,17.348302 0.489489,1.64622 -0.177753,1.913117 -1.334485,1.913117 z"
         id="path3388"
         style="fill:#241c1c"
         inkscape:connector-curvature="0" /></g><text
       inkscape:export-ydpi="407.36938"
       inkscape:export-xdpi="407.36938"
       inkscape:export-filename="/home/michael/revisioner/public/favicon.ico"
       transform="matrix(0.5337939,0,0,0.5337939,28.77209,-10.582112)"
       x="2"
       sodipodi:linespacing="125%"
       id="text3396"
       style="font-style:normal;font-weight:normal;font-size:7.5px;line-height:125%;font-family:sans-serif;letter-spacing:0px;word-spacing:0px;fill:#ffff00;fill-opacity:1;stroke:none;stroke-width:1px;stroke-linecap:butt;stroke-linejoin:miter;stroke-opacity:1"
       xml:space="preserve"><textPath
         id="textPath11577"
         xlink:href="#path11575"><tspan
   id="tspan3398"
   style="font-style:normal;font-variant:normal;font-weight:normal;font-stretch:normal;font-size:15px;font-family:'Abyssinica SIL';-inkscape-font-specification:'Abyssinica SIL';fill:#ffff00">Revisioner</tspan><tspan
   style="font-size:15px;fill:#ffff00"
   id="tspan3400" /><tspan
   style="font-size:15px;fill:#ffff00"
   id="tspan3402" /><tspan
   style="font-size:15px;fill:#ffff00"
   id="tspan3404" /><tspan
   style="font-size:15px;fill:#ffff00"
   id="tspan3406" /><tspan
   style="font-size:15px;fill:#ffff00"
   id="tspan3408" /><tspan
   style="font-size:15px;fill:#ffff00"
   id="tspan3410" /><tspan
   style="font-size:15px;fill:#ffff00"
   id="tspan3412" /><tspan
   style="font-size:15px;fill:#ffff00"
   id="tspan3414" /><tspan
   style="font-size:15px;fill:#ffff00"
   id="tspan3416" /><tspan
   style="font-size:15px;fill:#ffff00"
   id="tspan3418" /><tspan
   style="font-size:15px;fill:#ffff00"
   id="tspan3420" /><tspan
   style="font-size:15px;fill:#ffff00"
   id="tspan3422" /><tspan
   style="font-size:15px;fill:#ffff00"
   id="tspan3424" /><tspan
   style="font-size:15px;fill:#ffff00"
   id="tspan3426" /><tspan
   style="font-size:15px;fill:#ffff00"
   id="tspan3428" /><tspan
   style="font-size:15px;fill:#ffff00"
   id="tspan3430" /><tspan
   style="font-size:15px;fill:#ffff00"
   id="tspan3432" /><tspan
   style="font-size:15px;fill:#ffff00"
   id="tspan3434" /><tspan
   style="font-size:15px;fill:#ffff00"
   id="tspan3436" /><tspan
   style="font-size:15px;fill:#ffff00"
   id="tspan3438" /><tspan
   style="font-size:15px;fill:#ffff00"
   id="tspan3440" /><tspan
   style="font-size:15px;fill:#ffff00"
   id="tspan3442" /><tspan
   style="font-size:15px;fill:#ffff00"
   id="tspan3444" /><tspan
   style="font-size:15px;fill:#ffff00"
   id="tspan3446" /><tspan
   style="font-size:15px;fill:#ffff00"
   id="tspan3448" /><tspan
   style="font-size:15px;fill:#ffff00"
   id="tspan3450" /><tspan
   style="font-size:15px;fill:#ffff00"
   id="tspan3452" /><tspan
   style="font-size:15px;fill:#ffff00"
   id="tspan3454" /><tspan
   style="font-size:15px;fill:#ffff00"
   id="tspan3456" /><tspan
   style="font-size:15px;fill:#ffff00"
   id="tspan3458" /><tspan
   style="font-size:15px;fill:#ffff00"
   id="tspan3460" /><tspan
   style="font-size:15px;fill:#ffff00"
   id="tspan3462" /><tspan
   style="font-size:15px;fill:#ffff00"
   id="tspan3464" /><tspan
   style="font-size:15px;fill:#ffff00"
   id="tspan3466" /><tspan
   style="font-size:15px;fill:#ffff00"
   id="tspan3468" /><tspan
   style="font-size:15px;fill:#ffff00"
   id="tspan3470" /><tspan
   style="font-size:15px;fill:#ffff00"
   id="tspan3472" /><tspan
   style="font-size:15px;fill:#ffff00"
   id="tspan3474" /><tspan
   style="font-size:15px;fill:#ffff00"
   id="tspan3476" /><tspan
   style="font-size:15px;fill:#ffff00"
   id="tspan3478" /><tspan
   style="font-size:15px;fill:#ffff00"
   id="tspan3480" /><tspan
   style="font-size:15px;fill:#ffff00"
   id="tspan3482" /><tspan
   style="font-size:15px;fill:#ffff00"
   id="tspan3484" /><tspan
   style="font-size:15px;fill:#ffff00"
   id="tspan3486" /><tspan
   style="font-size:15px;fill:#ffff00"
   id="tspan3488" /><tspan
   style="font-size:15px;fill:#ffff00"
   id="tspan3490" /><tspan
   style="font-size:15px;fill:#ffff00"
   id="tspan3492" /><tspan
   style="font-size:15px;fill:#ffff00"
   id="tspan3494" /><tspan
   style="font-size:15px;fill:#ffff00"
   id="tspan3496" /><tspan
   style="font-size:15px;fill:#ffff00"
   id="tspan3498" /><tspan
   style="font-size:15px;fill:#ffff00"
   id="tspan3500" /><tspan
   style="font-size:15px;fill:#ffff00"
   id="tspan3502" /><tspan
   style="font-size:15px;fill:#ffff00"
   id="tspan3504" /><tspan
   style="font-size:15px;fill:#ffff00"
   id="tspan3506" /><tspan
   style="font-size:15px;fill:#ffff00"
   id="tspan3508" /><tspan
   style="font-size:15px;fill:#ffff00"
   id="tspan3510" /><tspan
   style="font-size:15px;fill:#ffff00"
   id="tspan3512" /><tspan
   style="font-size:15px;fill:#ffff00"
   id="tspan3514" /><tspan
   style="font-size:15px;fill:#ffff00"
   id="tspan3516" /><tspan
   style="font-size:15px;fill:#ffff00"
   id="tspan3518" /><tspan
   style="font-size:15px;fill:#ffff00"
   id="tspan3520" /><tspan
   style="font-size:15px;fill:#ffff00"
   id="tspan3522" /><tspan
   style="font-size:15px;fill:#ffff00"
   id="tspan3524" /><tspan
   style="font-size:15px;fill:#ffff00"
   id="tspan3526" /><tspan
   style="font-size:15px;fill:#ffff00"
   id="tspan3528" /><tspan
   style="font-size:15px;fill:#ffff00"
   id="tspan3530" /><tspan
   style="font-size:15px;fill:#ffff00"
   id="tspan3532" /><tspan
   style="font-size:15px;fill:#ffff00"
   id="tspan3534" /><tspan
   style="font-size:15px;fill:#ffff00"
   id="tspan3536" /><tspan
   style="font-size:15px;fill:#ffff00"
   id="tspan3538" /><tspan
   style="font-size:15px;fill:#ffff00"
   id="tspan3540" /><tspan
   style="font-size:15px;fill:#ffff00"
   id="tspan3542" /><tspan
   style="font-size:15px;fill:#ffff00"
   id="tspan3544" /><tspan
   style="font-size:15px;fill:#ffff00"
   id="tspan3546" /><tspan
   style="font-size:15px;fill:#ffff00"
   id="tspan3548" /><tspan
   style="font-size:15px;fill:#ffff00"
   id="tspan3550" /><tspan
   style="font-size:15px;fill:#ffff00"
   id="tspan3552" /><tspan
   style="font-size:15px;fill:#ffff00"
   id="tspan3554" /><tspan
   style="font-size:15px;fill:#ffff00"
   id="tspan3556" /><tspan
   style="font-size:15px;fill:#ffff00"
   id="tspan3558" /></textPath></text>
</g><path
     style="display:none;fill:none;fill-rule:evenodd;stroke:#000000;stroke-width:1px;stroke-linecap:butt;stroke-linejoin:miter;stroke-opacity:1"
     d="m 11.869885,118.38541 c 40.847659,-12.54289 83.027302,1.22099 83.027302,1.22099 l 0.444,0.222"
     id="path11575"
     inkscape:connector-curvature="0" /></svg>