<?xml version="1.0" encoding="UTF-8" standalone="no"?>
<!-- Generator: Adobe Illustrator 17.0.0, SVG Export Plug-In . SVG Version: 6.00 Build 0)  -->

<svg
   xmlns:dc="http://purl.org/dc/elements/1.1/"
   xmlns:cc="http://creativecommons.org/ns#"
   xmlns:rdf="http://www.w3.org/1999/02/22-rdf-syntax-ns#"
   xmlns:svg="http://www.w3.org/2000/svg"
   xmlns="http://www.w3.org/2000/svg"
   xmlns:xlink="http://www.w3.org/1999/xlink"
   xmlns:sodipodi="http://sodipodi.sourceforge.net/DTD/sodipodi-0.dtd"
   xmlns:inkscape="http://www.inkscape.org/namespaces/inkscape"
   version="1.1"
   id="Layer_2"
   x="0px"
   y="0px"
   width="72"
   height="72"
   viewBox="0 0 72.000001 72.000001"
   enable-background="new 0 0 119.99 63.835"
   xml:space="preserve"
   inkscape:version="0.91 r13725"
   sodipodi:docname="logo.svg"
   inkscape:export-filename="/home/michael/revisioner/public/favicon.ico"
   inkscape:export-xdpi="101.51171"
   inkscape:export-ydpi="101.51171"><metadata
     id="metadata3394"><rdf:RDF><cc:Work
         rdf:about=""><dc:format>image/svg+xml</dc:format><dc:type
           rdf:resource="http://purl.org/dc/dcmitype/StillImage" /><dc:title></dc:title></cc:Work></rdf:RDF></metadata><defs
     id="defs3392" /><sodipodi:namedview
     pagecolor="#ffffff"
     bordercolor="#666666"
     borderopacity="1"
     objecttolerance="10"
     gridtolerance="10"
     guidetolerance="10"
     inkscape:pageopacity="0"
     inkscape:pageshadow="2"
     inkscape:window-width="1215"
     inkscape:window-height="1000"
     id="namedview3390"
     showgrid="false"
     inkscape:zoom="9.0090843"
     inkscape:cx="38.289329"
     inkscape:cy="30.12919"
     inkscape:window-x="65"
     inkscape:window-y="24"
     inkscape:window-maximized="1"
     inkscape:current-layer="Layer_2" /><g
     id="g11801"
     transform="matrix(0.5337939,0,0,0.5337939,4.8972791,12.5761)"
     inkscape:export-filename="/home/michael/revisioner/public/favicon.ico"
     inkscape:export-xdpi="101.51171"
     inkscape:export-ydpi="101.51171"><path
       inkscape:connector-curvature="0"
       style="fill:#d35f5f"
       id="path3386"
       d="m 4.833,58.248001 c 0.706,-1.65 14.667,-33.833 15.333,-35.5 0.667,-1.667 -0.667,-2.417 -1.25,-0.833 -0.583,1.583 -17.083,37.75 -18,39.833 -0.916,2.084 -0.916,3.5 2.667,3.5 3.583,0 49.417,0 49.417,0 l 0,2.917 11.667,0 0,-3.167 c 0,0 48.333,0 50.083,0 1.75,0 3.333,-0.333 1.833,-3.5 -1.5,-3.167 -17,-37.417 -17.75,-39.25 -0.75,-1.833 -2.166,-1.083 -1.583,0.334 0.583,1.417 15,34.333 15.583,35.917 0.583,1.583 1.333,4.083 -5.417,4.083 -9.083,0 -25,-6.333 -31.917,-6.333 -6.917,0 -13.413,4.083 -16.706,8.416 -3.293,-3.083 -7.46,-8.417 -16.377,-8.417 -8.917,0 -20.25,6.25 -31.833,6.25 -4.333,0 -7.398,-0.397 -5.75,-4.25 z" /><path
       inkscape:connector-curvature="0"
       style="fill:#d35f5f"
       id="path3388"
       d="m 107.75,53.915001 c -1.333,-3.583 -14.417,-37.917 -14.417,-37.917 0,0 -1.25,0.417 -3.833,0.417 -8.417,0 -17.917,-5.583 -21.667,-5.583 -3.917,0 -9.04,4.333 -9.04,4.333 0,0 -5.96,-4.333 -8.793,-4.333 -5.25,0 -12.083,5.5 -22.333,5.5 -2.25,0 -3.583,-0.333 -3.583,-0.333 0,0 -13.917,36.833 -14.917,39.333 -1,2.5 -1.001,4.167 2.75,4.167 9,0 25.25,-8.167 30.333,-8.167 9.333,0 16.543,10.5 16.543,10.5 0,0 7.957,-10.417 16.457,-10.417 8.5,0 20,8.25 30.583,8.25 3.25,0 3.25,-2.167 1.917,-5.75 z m -51.25,-0.75 c 0,0 -4.5,-5.5 -13.333,-5.5 -9.167,0 -22.833,8 -26.667,8 -2.167,0 -3.417,-0.5 -2.5,-3.583 0.917,-3.083 11.917,-32.5 11.917,-32.5 0,0 1.585,0.167 3.833,0.167 10.25,0 14,-4.75 20,-4.75 4.083,0 6.25,2.333 6.75,4 l 0,34.166 z m 44.74,2.5 c -3.833,0 -17.5,-8 -26.667,-8 -8.833,0 -13.333,5.5 -13.333,5.5 l 0,-34.167 c 0.5,-1.667 2.667,-4 6.75,-4 6,0 9.75,4.75 20,4.75 2.248,0 3.833,-0.167 3.833,-0.167 0,0 11,29.417 11.917,32.5 0.917,3.084 -0.333,3.584 -2.5,3.584 z" /><text
       inkscape:export-ydpi="407.36938"
       inkscape:export-xdpi="407.36938"
       inkscape:export-filename="/home/michael/revisioner/public/favicon.ico"
       transform="translate(7.6670028,-5.8349991)"
       x="2"
       sodipodi:linespacing="125%"
       id="text3396"
       style="font-style:normal;font-weight:normal;font-size:7.5px;line-height:125%;font-family:sans-serif;letter-spacing:0px;word-spacing:0px;fill:#000000;fill-opacity:1;stroke:none;stroke-width:1px;stroke-linecap:butt;stroke-linejoin:miter;stroke-opacity:1"
       xml:space="preserve"><textPath
         id="textPath11577"
         xlink:href="#path11575"><tspan
   id="tspan3398"
   style="font-style:normal;font-variant:normal;font-weight:normal;font-stretch:normal;font-size:15px;font-family:'Abyssinica SIL';-inkscape-font-specification:'Abyssinica SIL'">Revisioner</tspan><tspan
   style="font-size:15px"
   id="tspan3400" /><tspan
   style="font-size:15px"
   id="tspan3402" /><tspan
   style="font-size:15px"
   id="tspan3404" /><tspan
   style="font-size:15px"
   id="tspan3406" /><tspan
   style="font-size:15px"
   id="tspan3408" /><tspan
   style="font-size:15px"
   id="tspan3410" /><tspan
   style="font-size:15px"
   id="tspan3412" /><tspan
   style="font-size:15px"
   id="tspan3414" /><tspan
   style="font-size:15px"
   id="tspan3416" /><tspan
   style="font-size:15px"
   id="tspan3418" /><tspan
   style="font-size:15px"
   id="tspan3420" /><tspan
   style="font-size:15px"
   id="tspan3422" /><tspan
   style="font-size:15px"
   id="tspan3424" /><tspan
   style="font-size:15px"
   id="tspan3426" /><tspan
   style="font-size:15px"
   id="tspan3428" /><tspan
   style="font-size:15px"
   id="tspan3430" /><tspan
   style="font-size:15px"
   id="tspan3432" /><tspan
   style="font-size:15px"
   id="tspan3434" /><tspan
   style="font-size:15px"
   id="tspan3436" /><tspan
   style="font-size:15px"
   id="tspan3438" /><tspan
   style="font-size:15px"
   id="tspan3440" /><tspan
   style="font-size:15px"
   id="tspan3442" /><tspan
   style="font-size:15px"
   id="tspan3444" /><tspan
   style="font-size:15px"
   id="tspan3446" /><tspan
   style="font-size:15px"
   id="tspan3448" /><tspan
   style="font-size:15px"
   id="tspan3450" /><tspan
   style="font-size:15px"
   id="tspan3452" /><tspan
   style="font-size:15px"
   id="tspan3454" /><tspan
   style="font-size:15px"
   id="tspan3456" /><tspan
   style="font-size:15px"
   id="tspan3458" /><tspan
   style="font-size:15px"
   id="tspan3460" /><tspan
   style="font-size:15px"
   id="tspan3462" /><tspan
   style="font-size:15px"
   id="tspan3464" /><tspan
   style="font-size:15px"
   id="tspan3466" /><tspan
   style="font-size:15px"
   id="tspan3468" /><tspan
   style="font-size:15px"
   id="tspan3470" /><tspan
   style="font-size:15px"
   id="tspan3472" /><tspan
   style="font-size:15px"
   id="tspan3474" /><tspan
   style="font-size:15px"
   id="tspan3476" /><tspan
   style="font-size:15px"
   id="tspan3478" /><tspan
   style="font-size:15px"
   id="tspan3480" /><tspan
   style="font-size:15px"
   id="tspan3482" /><tspan
   style="font-size:15px"
   id="tspan3484" /><tspan
   style="font-size:15px"
   id="tspan3486" /><tspan
   style="font-size:15px"
   id="tspan3488" /><tspan
   style="font-size:15px"
   id="tspan3490" /><tspan
   style="font-size:15px"
   id="tspan3492" /><tspan
   style="font-size:15px"
   id="tspan3494" /><tspan
   style="font-size:15px"
   id="tspan3496" /><tspan
   style="font-size:15px"
   id="tspan3498" /><tspan
   style="font-size:15px"
   id="tspan3500" /><tspan
   style="font-size:15px"
   id="tspan3502" /><tspan
   style="font-size:15px"
   id="tspan3504" /><tspan
   style="font-size:15px"
   id="tspan3506" /><tspan
   style="font-size:15px"
   id="tspan3508" /><tspan
   style="font-size:15px"
   id="tspan3510" /><tspan
   style="font-size:15px"
   id="tspan3512" /><tspan
   style="font-size:15px"
   id="tspan3514" /><tspan
   style="font-size:15px"
   id="tspan3516" /><tspan
   style="font-size:15px"
   id="tspan3518" /><tspan
   style="font-size:15px"
   id="tspan3520" /><tspan
   style="font-size:15px"
   id="tspan3522" /><tspan
   style="font-size:15px"
   id="tspan3524" /><tspan
   style="font-size:15px"
   id="tspan3526" /><tspan
   style="font-size:15px"
   id="tspan3528" /><tspan
   style="font-size:15px"
   id="tspan3530" /><tspan
   style="font-size:15px"
   id="tspan3532" /><tspan
   style="font-size:15px"
   id="tspan3534" /><tspan
   style="font-size:15px"
   id="tspan3536" /><tspan
   style="font-size:15px"
   id="tspan3538" /><tspan
   style="font-size:15px"
   id="tspan3540" /><tspan
   style="font-size:15px"
   id="tspan3542" /><tspan
   style="font-size:15px"
   id="tspan3544" /><tspan
   style="font-size:15px"
   id="tspan3546" /><tspan
   style="font-size:15px"
   id="tspan3548" /><tspan
   style="font-size:15px"
   id="tspan3550" /><tspan
   style="font-size:15px"
   id="tspan3552" /><tspan
   style="font-size:15px"
   id="tspan3554" /><tspan
   style="font-size:15px"
   id="tspan3556" /><tspan
   style="font-size:15px"
   id="tspan3558" /></textPath></text>
</g><path
     style="display:none;fill:none;fill-rule:evenodd;stroke:#000000;stroke-width:1px;stroke-linecap:butt;stroke-linejoin:miter;stroke-opacity:1"
     d="m 16.982858,47.802203 c 40.847659,-12.542896 83.027302,1.220989 83.027302,1.220989 l 0.444,0.221999"
     id="path11575"
     inkscape:connector-curvature="0" /></svg>